<svg width="331" height="354" viewBox="0 0 331 354" fill="none" xmlns="http://www.w3.org/2000/svg">
<path d="M51.7293 337.593C66.8149 337.593 79.0442 334.713 79.0442 331.16C79.0442 327.607 66.8149 324.727 51.7293 324.727C36.6437 324.727 24.4144 327.607 24.4144 331.16C24.4144 334.713 36.6437 337.593 51.7293 337.593Z" fill="#EBEBEB"/>
<path d="M182.894 353.137C235.001 353.137 277.242 346.699 277.242 338.759C277.242 330.818 235.001 324.38 182.894 324.38C130.788 324.38 88.5466 330.818 88.5466 338.759C88.5466 346.699 130.788 353.137 182.894 353.137Z" fill="#EBEBEB"/>
<path d="M270.284 332.913C293.35 332.913 312.049 329.658 312.049 325.644C312.049 321.629 293.35 318.375 270.284 318.375C247.219 318.375 228.52 321.629 228.52 325.644C228.52 329.658 247.219 332.913 270.284 332.913Z" fill="#EBEBEB"/>
<path d="M140.089 277.055H68.5187C68.5187 277.055 68.6877 266.378 75.7166 263.576C77.6232 262.744 79.7487 262.554 81.7724 263.036C83.7961 263.517 85.6085 264.644 86.9362 266.245C86.9362 266.245 89.8012 246.671 102.951 246.671C116.102 246.671 122.33 263.576 122.33 263.576C122.33 263.576 125.266 258.469 132.544 259.421C139.822 260.373 140.089 277.055 140.089 277.055Z" fill="#FACE84"/>
<path d="M315.599 277.055C315.599 277.055 313.41 266.814 309.032 265.24C304.655 263.665 301.986 268.256 301.986 268.256C301.986 268.256 300.954 258.469 294.743 255.55C288.533 252.632 283.835 258.62 283.835 258.62C283.835 258.62 279.066 246.208 270.551 246.208C262.036 246.208 257.739 264.368 257.739 264.368C257.739 264.368 252.721 258.958 247.569 262.01C242.418 265.062 242.418 277.055 242.418 277.055H315.599Z" fill="#FACE84"/>
<path d="M81.3665 277.055H15.4014C15.4014 277.055 17.5723 267.749 21.9409 267.09C26.3095 266.432 28.3559 270.747 28.3559 270.747C28.3559 270.747 28.1602 257.775 36.3636 255.568C44.5669 253.362 51.3823 264.812 51.3823 264.812C51.3823 264.812 56.5072 258.282 63.4916 258.7C70.4761 259.118 72.2377 269.92 72.2377 269.92C72.2377 269.92 78.5638 266.165 81.3665 277.055Z" fill="#FACE84"/>
<path d="M247.178 277.055H206.65C206.65 277.055 206.739 271.023 210.725 269.421C211.813 268.948 213.025 268.844 214.177 269.126C215.329 269.407 216.358 270.057 217.105 270.978C217.105 270.978 218.733 259.883 226.153 259.883C233.574 259.883 237.133 269.457 237.133 269.457C237.758 268.539 238.637 267.824 239.663 267.399C240.689 266.973 241.816 266.857 242.907 267.063C247.018 267.606 247.178 277.055 247.178 277.055Z" fill="#FACE84"/>
<path d="M331 277.055H0V286.558H331V277.055Z" fill="#A6A6A6"/>
<path d="M0 294.814L41.3728 294.601L82.7544 294.521L165.5 294.378L248.246 294.521L289.627 294.601L331 294.814L289.627 295.037L248.246 295.117L165.5 295.259L82.7544 295.117L41.3728 295.037L0 294.814Z" fill="#263238"/>
<path d="M223.191 336.757C221.153 337.433 163 337.264 160.784 335.867C159.948 335.342 159.476 326.863 159.201 316.613C159.141 314.4 159.094 312.126 159.058 309.789C158.8 294.716 158.889 278.71 158.889 278.71H197.789L196.899 309.789L196.703 316.613C196.703 316.613 218.946 326.64 221.198 328.446C223.449 330.253 225.219 336.089 223.191 336.757Z" fill="#DD6A57"/>
<path d="M223.333 336.819C222.007 337.255 197.237 337.344 179.202 336.97C175.029 336.881 171.194 336.766 168.134 336.632C163.89 336.436 161.016 336.205 160.58 335.911C159.557 335.253 159.067 322.814 158.8 309.691H196.845L196.65 316.551C196.65 316.551 219.009 326.631 221.287 328.446C223.564 330.262 225.406 336.16 223.333 336.819Z" fill="#B12441"/>
<path d="M222.532 334.506C212.745 334.23 173.17 334.07 163.462 334.55C163.382 334.55 163.382 334.612 163.462 334.612C173.17 335.093 212.727 334.933 222.532 334.666C222.737 334.657 222.737 334.506 222.532 334.506Z" fill="#263238"/>
<path d="M198.109 314.406C194.256 313.668 189.532 314.255 186.542 316.987C186.427 317.093 186.542 317.254 186.702 317.218C190.394 316.042 194.199 315.261 198.055 314.887C198.119 314.894 198.183 314.875 198.233 314.835C198.283 314.795 198.315 314.737 198.322 314.673C198.329 314.61 198.311 314.546 198.271 314.496C198.231 314.446 198.173 314.414 198.109 314.406Z" fill="#263238"/>
<path d="M200.885 316.088C197.032 315.358 192.317 315.937 189.363 318.677C189.247 318.784 189.363 318.944 189.523 318.908C193.213 317.728 197.019 316.946 200.876 316.577C200.933 316.568 200.985 316.538 201.023 316.494C201.061 316.45 201.082 316.394 201.083 316.336C201.084 316.278 201.065 316.222 201.029 316.177C200.992 316.131 200.942 316.1 200.885 316.088Z" fill="#263238"/>
<path d="M203.67 317.778C199.817 317.04 195.093 317.627 192.103 320.359C191.987 320.465 192.103 320.635 192.263 320.59C195.954 319.414 199.76 318.632 203.616 318.259C203.68 318.266 203.744 318.248 203.794 318.207C203.844 318.167 203.876 318.109 203.883 318.045C203.89 317.982 203.872 317.918 203.832 317.868C203.792 317.818 203.733 317.786 203.67 317.778Z" fill="#263238"/>
<path d="M206.428 319.46C202.575 318.731 197.86 319.309 194.861 322.049C194.746 322.156 194.906 322.316 195.03 322.281C198.733 321.084 202.555 320.29 206.428 319.914C206.471 319.894 206.508 319.862 206.534 319.822C206.56 319.782 206.574 319.735 206.574 319.687C206.574 319.639 206.56 319.592 206.534 319.552C206.508 319.512 206.471 319.48 206.428 319.46Z" fill="#263238"/>
<path d="M205.262 305.5C203.75 303.409 200.92 304.343 199.31 305.687C196.583 308.057 194.525 311.1 193.34 314.513C193.336 314.529 193.335 314.545 193.338 314.56C193.341 314.576 193.348 314.59 193.357 314.603C193.366 314.616 193.379 314.626 193.393 314.634C193.406 314.641 193.422 314.646 193.438 314.647C193.434 314.722 193.448 314.798 193.479 314.868C193.509 314.937 193.556 314.998 193.615 315.046C193.674 315.093 193.744 315.127 193.818 315.142C193.893 315.158 193.969 315.156 194.043 315.136C197.228 313.962 200.778 313.107 203.518 310.99C205.111 309.762 206.686 307.458 205.262 305.5ZM198.509 312.369C196.952 312.983 195.377 313.517 193.847 314.148C195.021 312.431 196.107 310.678 197.45 309.077C198.081 308.298 198.765 307.564 199.497 306.879C200.645 305.838 205.2 303.623 204.506 307.858C204.123 310.225 200.36 311.639 198.509 312.369Z" fill="#263238"/>
<path d="M183.544 313.472C186.72 314.842 190.377 314.78 193.749 315.118C193.825 315.12 193.901 315.104 193.97 315.071C194.039 315.038 194.099 314.989 194.145 314.928C194.191 314.867 194.222 314.796 194.235 314.721C194.248 314.646 194.243 314.568 194.221 314.495C194.236 314.491 194.25 314.483 194.261 314.473C194.273 314.462 194.282 314.449 194.287 314.434C194.292 314.419 194.294 314.403 194.291 314.387C194.289 314.372 194.283 314.357 194.274 314.344C192.27 311.331 189.508 308.897 186.266 307.289C184.362 306.399 181.4 306.194 180.456 308.596C179.513 310.999 181.693 312.68 183.544 313.472ZM181.809 310.723C180.083 306.799 185.039 307.796 186.418 308.516C187.301 308.998 188.148 309.542 188.953 310.145C190.644 311.355 192.139 312.814 193.705 314.157C192.05 313.89 190.395 313.766 188.731 313.561C186.756 313.312 182.761 312.885 181.809 310.723Z" fill="#263238"/>
<path d="M183.161 336.979C178.988 336.89 171.248 336.792 168.169 336.659C163.925 336.463 161.051 336.232 160.615 335.938C159.592 335.28 159.103 322.841 158.836 309.718L183.161 336.979Z" fill="#263238"/>
<path d="M146.424 112.027C146.424 112.027 155.152 210.307 156.603 217.808C156.932 219.516 157.136 228.805 157.27 240.745C157.572 266.797 157.394 306.666 157.394 306.666H198.394C198.394 306.666 197.175 232.373 195.36 217.389C193.544 202.406 181.942 112.027 181.942 112.027H146.424Z" fill="#99D5F3"/>
<path d="M196.516 299.521C190.119 299.388 191.952 299.334 185.555 299.281C182.423 299.281 161.852 299.067 158.925 299.548C158.911 299.553 158.899 299.562 158.891 299.574C158.883 299.586 158.878 299.6 158.878 299.615C158.878 299.629 158.883 299.643 158.891 299.655C158.899 299.667 158.911 299.676 158.925 299.681C161.852 300.171 182.423 299.984 185.555 299.957C191.952 299.895 190.119 299.841 196.516 299.708C196.641 299.708 196.641 299.53 196.516 299.521Z" fill="#263238"/>
<path d="M165.153 260.106L165.02 242.311C165.02 236.545 165.02 230.744 164.717 225.023C164.156 213.377 161.799 201.89 160.117 190.404C158.435 178.917 157.03 167.271 155.757 155.704C154.334 142.714 153.088 129.706 151.745 116.707C151.745 116.627 151.593 116.627 151.602 116.707C153.533 139.911 155.695 163.115 158.907 186.186C159.708 191.928 160.58 197.655 161.523 203.367C162.484 209.159 163.436 214.934 163.89 220.797C164.343 226.661 164.406 232.275 164.468 238.014C164.527 243.945 164.587 249.877 164.646 255.808C164.77 269.006 164.898 282.207 165.028 295.411C165.028 295.66 165.429 295.651 165.429 295.411L165.153 260.106Z" fill="#263238"/>
<path d="M137.776 112.027C137.776 112.027 155.152 210.307 156.603 217.808C156.932 219.516 157.136 228.805 157.27 240.745L176.844 111.991L137.776 112.027Z" fill="#263238"/>
<path d="M173.57 344.827C171.488 345.343 113.539 340.52 111.448 338.945C110.648 338.349 110.861 329.861 111.404 319.62C111.52 317.414 111.653 315.127 111.804 312.814C112.756 297.768 115.568 281.575 115.568 281.575L152.154 284.867L149.485 315.848L148.746 322.628C148.746 322.628 170.1 334.399 172.217 336.383C174.335 338.367 175.652 344.328 173.57 344.827Z" fill="#DD6A57"/>
<path d="M173.739 344.933C171.648 345.449 113.37 340.6 111.271 339.017C110.292 338.278 110.808 325.848 111.626 312.743L149.547 315.777L148.809 322.601C148.809 322.601 170.287 334.434 172.413 336.427C174.54 338.42 175.839 344.426 173.739 344.933Z" fill="#B12441"/>
<path d="M173.098 342.531C163.311 341.481 123.931 338.162 114.216 337.86C114.135 337.86 114.127 337.913 114.216 337.922C123.86 339.177 163.302 342.184 173.098 342.691C173.294 342.709 173.303 342.558 173.098 342.531Z" fill="#263238"/>
<path d="M150.374 320.546C146.584 319.513 141.833 319.709 138.666 322.2C138.55 322.298 138.666 322.476 138.817 322.45C142.586 321.565 146.441 321.091 150.312 321.035C150.372 321.034 150.43 321.012 150.475 320.972C150.519 320.932 150.548 320.877 150.556 320.817C150.563 320.758 150.549 320.697 150.516 320.648C150.483 320.598 150.432 320.561 150.374 320.546Z" fill="#263238"/>
<path d="M153.044 322.45C149.253 321.418 144.502 321.613 141.344 324.105C141.219 324.202 141.344 324.38 141.486 324.345C145.259 323.463 149.116 322.992 152.99 322.939C153.05 322.936 153.106 322.912 153.149 322.872C153.193 322.831 153.22 322.776 153.226 322.717C153.233 322.658 153.218 322.599 153.184 322.55C153.151 322.501 153.101 322.465 153.044 322.45Z" fill="#263238"/>
<path d="M155.633 324.363C151.851 323.322 147.1 323.526 143.933 326.017C143.808 326.115 143.933 326.293 144.075 326.258C147.849 325.378 151.705 324.904 155.579 324.843C155.635 324.836 155.686 324.81 155.724 324.77C155.763 324.73 155.788 324.679 155.794 324.624C155.8 324.568 155.787 324.513 155.758 324.465C155.729 324.418 155.685 324.382 155.633 324.363Z" fill="#263238"/>
<path d="M158.266 326.258C154.485 325.217 149.734 325.421 146.566 327.913C146.442 328.01 146.566 328.18 146.709 328.153C150.482 327.273 154.339 326.799 158.213 326.738C158.277 326.745 158.341 326.727 158.391 326.687C158.441 326.647 158.473 326.588 158.48 326.525C158.487 326.461 158.469 326.397 158.428 326.347C158.388 326.297 158.33 326.265 158.266 326.258Z" fill="#263238"/>
<path d="M158.204 312.244C156.861 310.038 153.969 310.741 152.252 311.96C149.345 314.098 147.053 316.964 145.605 320.27C145.598 320.285 145.595 320.301 145.595 320.318C145.596 320.334 145.6 320.351 145.608 320.365C145.615 320.38 145.626 320.393 145.64 320.402C145.654 320.412 145.669 320.418 145.686 320.421C145.686 320.715 145.908 321.044 146.246 320.946C149.52 320.056 153.124 319.469 156.033 317.583C157.715 316.479 159.468 314.335 158.204 312.244ZM150.926 318.553C149.325 319.042 147.714 319.442 146.13 319.994C147.381 318.338 148.715 316.747 150.125 315.225C150.818 314.498 151.558 313.817 152.341 313.187C153.578 312.244 158.284 310.403 157.261 314.567C156.692 316.862 152.83 317.974 150.926 318.553Z" fill="#263238"/>
<path d="M135.916 318.455C138.968 320.074 142.616 320.305 145.961 320.91C146.308 320.973 146.513 320.626 146.477 320.332C146.492 320.327 146.506 320.319 146.517 320.309C146.529 320.298 146.538 320.285 146.544 320.271C146.55 320.257 146.552 320.241 146.552 320.225C146.551 320.21 146.547 320.195 146.54 320.181C144.791 317.02 142.241 314.375 139.146 312.511C137.367 311.461 134.386 311.025 133.256 313.348C132.126 315.67 134.128 317.512 135.916 318.455ZM134.404 315.572C132.998 311.524 137.865 312.903 139.173 313.748C140.012 314.288 140.814 314.882 141.575 315.527C143.168 316.88 144.538 318.419 146.024 319.914C144.395 319.513 142.758 319.255 141.121 318.917C139.137 318.553 135.187 317.805 134.404 315.572Z" fill="#263238"/>
<path d="M152.483 309.798L109.046 307.849C109.046 307.849 122.543 224.383 122.748 218.875C123.291 204.542 131.921 112.009 131.921 112.009H181.951C181.951 112.009 178.793 133.363 173.401 146.913C169.77 148.18 166.265 149.779 162.929 151.691C162.929 151.691 158.249 212.887 158.071 220.512C157.724 235.585 152.483 309.798 152.483 309.798Z" fill="#99D5F3"/>
<path d="M150.374 303.151C143.986 302.751 145.819 302.778 139.431 302.439C136.308 302.279 115.755 301.229 112.81 301.594C112.747 301.594 112.747 301.71 112.81 301.719C115.71 302.333 136.272 303.018 139.404 303.125C145.801 303.329 143.968 303.205 150.366 303.338C150.455 303.347 150.463 303.16 150.374 303.151Z" fill="#263238"/>
<path d="M135.596 117.481C133.736 140.783 131.823 164.085 129.697 187.37C127.57 210.654 125.053 234.063 122.001 257.321C120.298 270.323 118.43 283.295 116.395 296.238C116.395 296.327 116.52 296.363 116.529 296.238C120.657 273.229 123.647 250.016 126.316 226.785C128.985 203.554 131.005 180.27 132.882 156.985C133.95 143.808 134.911 130.622 135.916 117.436C135.898 117.285 135.605 117.294 135.596 117.481Z" fill="#263238"/>
<path d="M175.18 145.97C170.939 147.512 166.839 149.421 162.929 151.673C162.896 151.689 162.87 151.717 162.858 151.751C162.845 151.785 162.847 151.823 162.862 151.856C162.877 151.889 162.905 151.915 162.939 151.927C162.973 151.94 163.011 151.938 163.044 151.923C167.173 150.143 171.381 148.462 175.403 146.46C175.468 146.43 175.518 146.376 175.543 146.309C175.568 146.243 175.566 146.169 175.536 146.104C175.507 146.039 175.453 145.988 175.386 145.963C175.319 145.938 175.245 145.941 175.18 145.97Z" fill="#263238"/>
<path d="M176.497 117.65C176.497 117.508 176.23 117.472 176.23 117.65C176.232 122.255 176.003 126.858 175.545 131.441C175.349 133.567 173.641 145.321 169.958 144.458C169.335 144.315 169.068 143.71 168.925 142.776C168.944 141.574 169.108 140.379 169.415 139.217C169.824 136.761 170.153 134.297 170.367 131.806C170.793 127.18 170.742 122.523 170.216 117.908C170.208 117.882 170.193 117.858 170.171 117.842C170.149 117.825 170.123 117.816 170.095 117.816C170.068 117.816 170.042 117.825 170.02 117.842C169.998 117.858 169.983 117.882 169.975 117.908C170.087 124.321 169.713 130.734 168.854 137.091C168.392 140.151 166.852 144.751 170.047 145.223C173.241 145.694 175.385 137.989 175.803 135.89C176.826 129.866 177.059 123.734 176.497 117.65Z" fill="#263238"/>
<path d="M170.055 144.751C169.724 145.545 169.444 146.359 169.219 147.189C168.979 147.829 168.865 148.508 168.881 149.191C168.881 149.316 169.068 149.333 169.13 149.244C169.522 148.643 169.822 147.986 170.02 147.296C170.296 146.54 170.589 145.792 170.856 145.036C170.894 144.93 170.888 144.813 170.84 144.711C170.791 144.609 170.704 144.531 170.598 144.493C170.492 144.456 170.375 144.462 170.273 144.51C170.172 144.558 170.093 144.645 170.055 144.751Z" fill="#263238"/>
<path d="M171.132 113.717C170.767 114.34 133.692 121.529 131.841 121.28C131.753 121.265 131.666 121.242 131.583 121.209C129.234 120.506 117.677 112.667 116.796 111.991C114.625 110.336 120.417 95.5934 122.57 92.9775C123.994 91.2425 126.974 90.2016 126.974 90.2016C126.974 90.2016 131.939 63.981 136.495 57.9753C137.633 56.4716 160.704 52.539 165.117 53.8113C167.004 54.3629 171.968 58.1265 172.235 58.8917C172.476 60.0395 171.488 113.077 171.132 113.717Z" fill="#37474F"/>
<path d="M171.132 113.717C170.767 114.34 133.692 121.529 131.841 121.28C131.753 121.265 131.666 121.242 131.583 121.209C133.727 111.012 143.844 63.1624 144.28 62.7976C144.716 62.4328 166.843 59.301 172.2 58.9006C172.476 60.0395 171.488 113.077 171.132 113.717Z" fill="#263238"/>
<path d="M148.906 58.0198C148.479 57.7262 147.483 52.6813 148.017 51.587C148.622 50.3324 157.581 49.5851 158.24 50.4748C158.898 51.3645 159.904 56.3915 159.663 56.614C159.423 56.8364 157.973 57.2279 157.724 56.9343C157.475 56.6407 156.834 52.4856 156.683 52.2454C156.531 52.0051 150.214 52.5657 150.054 52.9127C149.894 53.2597 151.033 57.4236 150.81 57.6461C150.588 57.8685 149.316 58.3312 148.906 58.0198Z" fill="#37474F"/>
<path d="M165.758 66.3833C172.271 73.5012 201.348 92.506 212.167 90.6909C219.285 89.5075 241.653 74.1062 246.386 69.2393C251.929 63.545 240.345 48.6152 236.038 50.4481C230.7 52.7347 212.905 66.4634 207.869 68.2428C204.995 69.2838 186.347 61.6677 168.997 54.5498C162.439 51.8984 161.327 61.5609 165.758 66.3833Z" fill="#DD6A57"/>
<path d="M246.386 69.2393C248.219 67.531 255.942 58.9718 257.552 56.1068C259.163 53.2419 263.22 44.6648 261.156 43.2056C259.091 41.7465 257.703 44.1665 257.703 44.1665C257.703 44.1665 259.002 39.9225 256.618 38.9883C254.723 38.2498 252.587 41.5418 252.587 41.5418C252.587 41.5418 253.78 36.8173 251.297 36.2034C249.028 35.634 247.632 39.7623 247.632 39.7623C247.632 39.7623 248.228 35.7051 245.941 35.5806C243.192 35.4382 242.169 42.4493 240.149 45.4834C239.686 46.1685 229.855 58.7493 229.855 58.7493L246.386 69.2393Z" fill="#DD6A57"/>
<path d="M247.489 39.6467C246.19 44.8249 245.496 46.9336 242.151 50.8218C242.089 50.8929 242.151 51.0086 242.266 50.9374C245.888 47.3785 246.893 44.9851 247.756 39.6734C247.783 39.3709 247.552 39.362 247.489 39.6467Z" fill="#263238"/>
<path d="M252.534 41.5507C251.271 46.8891 249.865 49.0512 246.671 53.3842C246.626 53.4465 246.724 53.5266 246.777 53.4732C250.283 49.4872 252.116 47.0048 252.721 41.5507C252.748 41.3105 252.596 41.3105 252.534 41.5507Z" fill="#263238"/>
<path d="M257.543 44.3801C255.942 49.4071 254.616 52.014 250.959 55.8132C250.943 55.8314 250.934 55.8552 250.934 55.8798C250.934 55.9045 250.943 55.9281 250.96 55.9461C250.977 55.964 251 55.975 251.025 55.9767C251.049 55.9785 251.073 55.971 251.093 55.9556C255.194 52.3966 256.876 49.2025 257.686 44.4424C257.739 44.0954 257.641 44.0954 257.543 44.3801Z" fill="#263238"/>
<path d="M223.965 58.3312C223.965 58.3312 227.524 53.3753 228.956 50.7951C230.389 48.2149 233.316 40.3674 235.807 39.967C238.61 39.5132 238.272 47.1383 235.807 51.7649C235.807 51.7649 241.902 57.8507 239.74 62.4418C237.578 67.0328 223.965 58.3312 223.965 58.3312Z" fill="#DD6A57"/>
<path d="M235.718 52.3165C238.174 54.6032 240.389 58.4201 239.766 61.7033C239.766 61.8011 239.882 61.8456 239.909 61.7478C241.065 58.3134 238.53 53.8736 236.216 51.9607C235.789 51.5959 235.077 51.7204 235.718 52.3165Z" fill="#263238"/>
<path d="M239.286 77.2915C239.286 77.2915 217.763 94.1965 208.145 92.0967C203.367 91.0468 195.413 87.4968 187.521 83.1015C179.513 78.6528 171.506 73.2521 166.986 68.7144C161.647 63.376 160.856 58.0376 163.115 55.3684C163.577 54.8462 164.14 54.4238 164.77 54.127C165.401 53.8301 166.085 53.6652 166.781 53.6423C168.867 53.5822 170.931 54.07 172.769 55.057C183.241 60.1462 204.168 68.2073 206.579 67.7535C208.99 67.2997 223.707 56.6585 223.707 56.6585L239.286 77.2915Z" fill="#B12441"/>
<path d="M234.01 79.6226C233.547 78.7328 232.915 77.9499 232.373 77.1135C231.83 76.2772 231.252 75.4586 230.673 74.6489C229.561 73.083 228.422 71.5349 227.274 69.9867L223.822 65.369C222.63 63.7763 221.491 62.0947 220.174 60.6C220.121 60.5377 220.014 60.6 220.059 60.6801C221.073 62.3884 222.319 63.9899 223.466 65.6092C224.614 67.2285 225.726 68.8123 226.865 70.4049C228.004 71.9975 229.152 73.5901 230.317 75.165C230.896 75.939 231.474 76.7042 232.097 77.4516C232.72 78.199 233.253 79.0175 233.93 79.7115C234.01 79.7738 234.063 79.6848 234.01 79.6226Z" fill="#263238"/>
<path d="M187.494 83.1014C179.487 78.6527 171.479 73.252 166.959 68.7144C161.621 63.376 160.829 58.0375 163.089 55.3683C165.162 54.3718 166.648 53.7134 166.755 53.6422C167.146 54.185 179.576 71.6238 187.494 83.1014Z" fill="#263238"/>
<path d="M185.074 122.979C183.829 124.376 158.613 127.517 141.646 129.136C133.14 129.955 126.707 130.382 126.396 130.026C125.56 129.039 133.131 90.3617 138.692 75.7967C142.251 66.5434 145.232 61.7122 147.812 58.8917C150.205 56.2759 152.261 55.3328 153.987 54.2473C157.074 52.281 166.319 52.7436 167.831 53.3575C169.53 54.007 174.949 61.9791 176.648 68.7678C178.348 75.5565 185.875 122.09 185.074 122.979Z" fill="#B12441"/>
<path d="M138.71 75.7878C142.269 66.5345 145.25 61.7033 147.83 58.8828L155.909 113.077C147.403 113.895 127.001 126.788 126.69 126.423C127.179 122.072 133.149 90.3617 138.71 75.7878Z" fill="#263238"/>
<path d="M170.554 56.3826C170.554 56.2047 170.394 56.178 170.394 56.3826C170.34 58.7493 170.278 61.6232 168.801 63.2336C166.87 65.3156 163.551 64.2123 161.318 63.1802C157.839 61.5609 155.188 58.7315 153.026 55.6086C153.018 55.5963 153.008 55.5856 152.997 55.5772C152.985 55.5688 152.972 55.5627 152.958 55.5594C152.944 55.5561 152.929 55.5556 152.915 55.558C152.901 55.5603 152.887 55.5654 152.875 55.573C152.862 55.5806 152.852 55.5905 152.843 55.6022C152.835 55.6139 152.829 55.6272 152.825 55.6412C152.822 55.6553 152.822 55.6698 152.824 55.6841C152.826 55.6983 152.831 55.712 152.839 55.7242C155.321 59.8793 159.227 63.6696 164.094 64.7195C169.593 65.885 171.346 61.4007 170.554 56.3826Z" fill="#263238"/>
<path d="M166.71 61.3207C163.569 62.4684 157.43 58.1888 154.752 54.443C154.574 54.185 154.645 51.24 154.574 47.6632C154.512 45.4923 154.405 43.0722 154.138 40.8656C154.085 40.4208 155.722 41.0614 155.722 41.0614L158.649 41.4084L168.338 42.5739C167.877 45.4176 167.767 48.3071 168.009 51.1777C168.051 51.4797 168.12 51.7774 168.214 52.0674C168.214 52.1119 168.214 52.1564 168.214 52.2187C168.739 53.8825 169.744 60.1996 166.71 61.3207Z" fill="#DD6A57"/>
<path d="M168.214 52.103C168.214 52.1475 168.214 52.192 168.214 52.2542C167.753 52.3769 167.283 52.4573 166.808 52.4945C157.492 53.3842 154.921 41.7287 154.921 41.7287L158.613 41.4439L168.303 42.6095C167.842 45.4532 167.731 48.3427 167.973 51.2133C168.027 51.5163 168.108 51.8141 168.214 52.103Z" fill="#263238"/>
<path d="M150.49 24.3877C149.422 29.4236 153.275 43.3747 157.047 46.2218C162.51 50.3591 170.838 50.0655 174.193 43.6327C177.44 37.4045 172.102 19.3162 167.965 16.7893C161.834 13.0702 152.056 16.9406 150.49 24.3877Z" fill="#DD6A57"/>
<path d="M163.347 32.075C163.347 32.075 163.285 32.1373 163.293 32.1729C163.578 33.1071 163.747 34.2282 162.982 34.7709C162.982 34.7709 162.982 34.8332 162.982 34.7709C164.005 34.3883 163.765 32.9114 163.347 32.075Z" fill="#263238"/>
<path d="M162.235 31.3188C160.695 31.6124 161.398 34.682 162.831 34.4061C164.263 34.1303 163.534 31.0696 162.235 31.3188Z" fill="#263238"/>
<path d="M168.881 30.9717C168.881 30.9717 168.961 30.9717 168.97 31.034C169.157 31.9949 169.53 33.0537 170.465 33.1783V33.2317C169.388 33.3206 168.908 31.906 168.881 30.9717Z" fill="#263238"/>
<path d="M169.504 29.7795C170.999 29.3168 171.826 32.3508 170.394 32.7868C168.961 33.2228 168.24 30.171 169.504 29.7795Z" fill="#263238"/>
<path d="M160.704 30.1977C161.082 29.9873 161.447 29.7556 161.799 29.5037C162.213 29.3214 162.557 29.009 162.777 28.6139C162.82 28.4728 162.815 28.3217 162.764 28.1835C162.712 28.0454 162.617 27.9279 162.493 27.8488C162.224 27.7324 161.928 27.69 161.637 27.726C161.346 27.762 161.07 27.875 160.838 28.0534C160.31 28.3439 159.907 28.8191 159.708 29.388C159.676 29.5186 159.683 29.6553 159.726 29.7825C159.769 29.9096 159.847 30.022 159.951 30.1067C160.055 30.1914 160.181 30.2448 160.315 30.2609C160.448 30.277 160.583 30.2551 160.704 30.1977Z" fill="#263238"/>
<path d="M170.331 27.9644C169.901 27.9867 169.471 27.9867 169.041 27.9644C168.586 28.0161 168.126 27.916 167.733 27.6797C167.625 27.5806 167.552 27.4483 167.526 27.3035C167.5 27.1587 167.523 27.0095 167.591 26.879C167.764 26.6411 167.996 26.4533 168.265 26.3345C168.534 26.2157 168.829 26.1703 169.121 26.2028C169.723 26.1833 170.31 26.3896 170.767 26.7811C170.854 26.8774 170.914 26.9958 170.938 27.1233C170.963 27.2509 170.952 27.3828 170.907 27.5047C170.862 27.6266 170.785 27.7339 170.683 27.8149C170.582 27.896 170.46 27.9477 170.331 27.9644Z" fill="#263238"/>
<path d="M164.833 38.0185C165.161 38.3384 165.551 38.5872 165.98 38.7494C166.409 38.9117 166.866 38.9839 167.324 38.9616C167.724 38.9476 168.119 38.8756 168.498 38.7481L168.712 38.6769L168.917 38.5968C168.964 38.5735 169.003 38.5362 169.028 38.4901C169.054 38.444 169.064 38.3912 169.059 38.3388C169.063 38.3063 169.063 38.2734 169.059 38.2409V38.1608C168.908 37.4224 168.578 36.328 168.578 36.328C168.881 36.3992 170.358 36.7017 170.269 36.328C169.435 33.0481 168.263 29.8636 166.772 26.8256C166.764 26.8032 166.747 26.7849 166.726 26.7749C166.704 26.7649 166.679 26.7639 166.657 26.7722C166.634 26.7805 166.616 26.7973 166.606 26.819C166.596 26.8407 166.595 26.8655 166.603 26.8879C167.368 29.9219 168.659 32.8046 169.468 35.8386C168.931 35.7192 168.38 35.6802 167.831 35.723C167.733 35.7763 168.498 37.8316 168.543 38.1697C167.961 38.3627 167.347 38.4377 166.736 38.3904C166.125 38.343 165.529 38.1742 164.984 37.8939C164.824 37.8672 164.762 37.9562 164.833 38.0185Z" fill="#263238"/>
<path d="M167.982 38.4811C167.702 39.0952 167.267 39.6257 166.719 40.0204C166.416 40.2291 166.054 40.3352 165.687 40.3229C164.877 40.3229 164.699 39.6111 164.708 38.9794C164.712 38.6465 164.754 38.3152 164.833 37.9918C165.804 38.4862 166.907 38.6576 167.982 38.4811Z" fill="#263238"/>
<path d="M166.719 40.0204C166.416 40.2291 166.054 40.3352 165.687 40.3229C164.877 40.3229 164.699 39.6111 164.708 38.9794C165.111 38.9026 165.529 38.9635 165.893 39.1522C166.258 39.341 166.549 39.6467 166.719 40.0204Z" fill="#FF99BA"/>
<path d="M152.732 35.5717C155.953 34.762 155.143 28.7563 155.143 28.7563C155.143 28.7563 160.482 26.4875 160.233 22.1189C160.233 22.1189 166.319 24.1831 170.082 21.6651C173.846 19.1471 171.862 14.6896 171.123 13.7998C170.385 12.9101 168.587 15.3302 168.587 15.3302C168.587 15.3302 167.698 12.7499 166.897 12.661C166.096 12.572 165.749 14.3515 165.749 14.3515C162.204 14.1174 158.644 14.4173 155.188 15.2412C150.392 16.5669 149.2 22.021 149.2 22.021C149.2 22.021 146.753 23.2043 146.362 25.224C145.97 27.2438 150.677 36.0877 152.732 35.5717Z" fill="#263238"/>
<path d="M153.844 29.1211C158.293 28.6317 160.411 25.0906 160.019 20.8288C160.019 20.817 160.024 20.8056 160.032 20.7973C160.041 20.789 160.052 20.7843 160.064 20.7843C160.075 20.7843 160.087 20.789 160.095 20.7973C160.103 20.8056 160.108 20.817 160.108 20.8288C160.927 24.6813 158.4 29.8151 153.88 29.3257C153.747 29.308 153.729 29.13 153.844 29.1211Z" fill="#263238"/>
<path d="M149.298 21.852C149.308 21.8461 149.321 21.8446 149.333 21.848C149.344 21.8513 149.354 21.8591 149.36 21.8697C149.366 21.8804 149.368 21.8929 149.364 21.9046C149.361 21.9163 149.353 21.9261 149.342 21.932C148.284 22.8218 147.011 23.5425 146.442 24.8415C145.748 26.4074 146.388 28.089 147.136 29.4948C148.301 31.6746 150.241 34.3972 152.652 35.2514C152.795 35.2514 152.714 35.5005 152.572 35.4649C149.716 34.5752 147.305 31.0162 146.291 28.347C145.152 25.4554 146.629 23.2399 149.298 21.852Z" fill="#263238"/>
<path d="M165.224 22.1545C166.361 22.4903 167.568 22.5087 168.714 22.2075C169.861 21.9064 170.903 21.2973 171.728 20.4462C173.597 18.3108 172.476 15.8373 170.972 13.9066C170.96 13.8851 170.955 13.8605 170.958 13.8362C170.962 13.8119 170.972 13.7892 170.989 13.7713C171.006 13.7535 171.028 13.7415 171.052 13.737C171.076 13.7326 171.101 13.7359 171.123 13.7464C172.903 15.3213 173.739 18.1951 172.298 20.2771C170.856 22.3591 167.493 23.2043 165.109 22.4659C164.904 22.4036 165.02 22.0922 165.224 22.1545Z" fill="#263238"/>
<path d="M154.547 35.6696C154.547 35.6696 150.846 31.4433 148.897 32.8135C146.949 34.1837 150.072 40.5453 152.608 41.1859C152.927 41.291 153.264 41.3303 153.599 41.3016C153.934 41.2728 154.26 41.1766 154.557 41.0186C154.853 40.8607 155.115 40.6443 155.326 40.3825C155.537 40.1208 155.693 39.819 155.784 39.4954L154.547 35.6696Z" fill="#DD6A57"/>
<path d="M149.832 34.6108C149.832 34.6108 149.832 34.6731 149.832 34.682C151.611 35.1891 152.688 36.675 153.497 38.2409C153.38 38.0793 153.229 37.9452 153.054 37.8481C152.88 37.751 152.686 37.6933 152.487 37.6788C152.288 37.6644 152.088 37.6937 151.901 37.7647C151.715 37.8357 151.546 37.9466 151.407 38.0897C151.407 38.0897 151.407 38.1875 151.46 38.1786C151.755 38.0407 152.086 38 152.406 38.0623C152.726 38.1247 153.018 38.2869 153.239 38.5256C153.601 38.915 153.92 39.3414 154.191 39.798C154.28 39.9403 154.547 39.798 154.476 39.6556C154.227 37.4402 152.198 34.5752 149.832 34.6108Z" fill="#263238"/>
<path d="M158.845 45.8748C156.38 45.1542 153.871 44.2822 152.047 42.3159C150.683 40.9137 149.668 39.2098 149.084 37.3423C149.393 38.0752 149.793 38.7659 150.277 39.3976C150.764 40.0532 151.367 40.6141 152.056 41.0525C153.803 43.2194 156.193 44.7768 158.88 45.5012C159.138 45.4923 159.085 45.8748 158.845 45.8748Z" fill="#EBEBEB"/>
<path d="M155.17 37.2355C154.681 36.7817 153.026 34.2905 151.727 33.4541C151.527 33.3007 151.319 33.1581 151.104 33.027C150.76 32.7976 150.367 32.6514 149.956 32.6C150.262 32.4284 150.612 32.351 150.962 32.3775C152.741 32.4665 154.476 35.8475 155.313 37.102C155.366 37.1821 155.25 37.3245 155.17 37.2355Z" fill="#EBEBEB"/>
<path d="M154.699 36.6928C154.307 36.0699 159.405 37.7071 164.254 35.981C165.242 35.634 167.929 34.0947 169.513 33.8723C171.096 33.6499 173.125 34.6819 175.349 34.6108C176.106 34.6108 176.355 41.1592 174.842 44.2555C174.335 45.2698 171.924 47.5564 170.313 47.9479C166.523 48.8377 159.557 47.0582 158.373 45.9015C157.43 44.9851 158.382 42.5739 154.699 36.6928Z" fill="#EBEBEB"/>
<path d="M175.02 36.0877C173.451 35.5668 171.807 35.3024 170.153 35.3048C168.834 35.6236 167.556 36.0954 166.345 36.7105C163.452 37.9882 160.252 38.4052 157.128 37.9117C157.083 37.9117 157.083 37.974 157.128 37.9829C159.919 38.6897 162.865 38.4775 165.527 37.3778C166.977 36.8173 168.676 35.803 170.233 35.6874C171.845 35.6876 173.451 35.8727 175.02 36.239C175.154 36.2835 175.171 36.1411 175.02 36.0877Z" fill="#DBDBDB"/>
<path d="M173.632 43.9263C172.706 44.6645 171.731 45.3393 170.714 45.946C169.486 46.5422 167.902 46.3286 166.585 46.2041C164.096 45.8679 161.625 45.4047 159.183 44.8161C161.938 45.7778 164.812 46.3586 167.724 46.5422C168.709 46.6762 169.711 46.5787 170.652 46.2574C171.758 45.6321 172.773 44.8566 173.668 43.953C173.668 43.953 173.659 43.9085 173.632 43.9263Z" fill="#DBDBDB"/>
<path d="M174.504 38.4011C172.059 38.1249 169.583 38.3923 167.253 39.184C164.486 39.9418 161.623 40.2866 158.756 40.2072V40.2517C161.316 40.4495 163.892 40.2453 166.39 39.6467C167.6 39.3442 168.783 38.9438 169.993 38.6947C171.485 38.4245 173.011 38.3944 174.513 38.6057C174.575 38.5701 174.593 38.41 174.504 38.4011Z" fill="#DBDBDB"/>
<path d="M174.273 40.9546C172.275 42.5106 169.844 43.409 167.315 43.5259C164.716 43.4962 162.13 43.1587 159.61 42.5205C159.61 42.5205 159.61 42.5739 159.61 42.5828C164.77 43.9619 169.913 44.6737 174.362 41.097C174.442 41.0258 174.397 40.8923 174.273 40.9546Z" fill="#DBDBDB"/>
<path d="M149.173 56.614C148.47 55.7687 152.964 53.2864 154.138 54.2295C155.312 55.1726 161.256 69.7554 159.299 85.5838C157.341 101.412 128.95 119.892 127.793 117.525C127.582 116.814 127.528 116.066 127.634 115.332C127.739 114.597 128.003 113.895 128.407 113.272C129.483 112.018 149.44 96.4564 151.682 86.6426C153.684 77.9054 150.944 58.7582 149.173 56.614Z" fill="#99D5F3"/>
<path d="M138.336 66.7392C120.346 85.6995 104.108 118.21 113.895 119.901C122.374 121.369 148.969 113.673 155.544 110.852C158.409 109.642 150.926 85.5304 147.945 87.0074C145.907 88.0803 143.778 88.9734 141.584 89.6766C140.694 89.6143 144.547 79.6404 148.373 70.0134C153.764 56.436 145.089 59.6302 138.336 66.7392Z" fill="#DD6A57"/>
<path d="M175.1 77.9054C175.593 78.4785 175.9 79.1883 175.98 79.9402C176.059 80.692 175.908 81.4503 175.545 82.1138C176.783 82.4514 177.866 83.2095 178.606 84.2581C179.825 86.171 177.36 88.9114 177.36 88.9114C178.576 89.5266 179.577 90.4941 180.234 91.6874C181.213 93.6359 179.131 96.7589 179.131 96.7589C179.934 97.9401 180.284 99.3709 180.118 100.789C179.522 104.562 174.157 106.849 170.767 108.334C167.377 109.82 156.345 110.87 154.263 111.279L144.475 89.5698C144.475 89.5698 157.822 78.5638 162.048 77.3804C165.66 76.4017 173.116 75.8145 175.1 77.9054Z" fill="#DD6A57"/>
<path d="M175.234 81.8558C171.185 81.9982 167.395 83.3417 163.543 84.4627C163.532 84.4587 163.52 84.4574 163.509 84.4588C163.497 84.4603 163.487 84.4645 163.477 84.471C163.468 84.4776 163.46 84.4863 163.455 84.4965C163.449 84.5067 163.447 84.518 163.447 84.5295C163.447 84.5409 163.449 84.5523 163.455 84.5624C163.46 84.5726 163.468 84.5813 163.477 84.5879C163.487 84.5945 163.497 84.5986 163.509 84.6001C163.52 84.6015 163.532 84.6002 163.543 84.5962C167.368 83.4395 171.372 83.048 175.234 82.0426C175.254 82.0364 175.271 82.024 175.283 82.0072C175.296 81.9904 175.302 81.9701 175.302 81.9492C175.302 81.9284 175.296 81.908 175.283 81.8912C175.271 81.8744 175.254 81.862 175.234 81.8558Z" fill="#263238"/>
<path d="M177.164 88.6801C176.247 88.8048 175.35 89.047 174.495 89.4008C173.605 89.7211 172.653 90.0592 171.737 90.4062C169.904 91.1121 168.089 91.8594 166.292 92.6483C166.212 92.6483 166.292 92.8174 166.336 92.7818C168.16 92.0878 170.002 91.4205 171.853 90.7977C172.742 90.4863 173.712 90.1927 174.646 89.9079C175.544 89.6854 176.415 89.3662 177.245 88.9559C177.281 88.9453 177.312 88.9206 177.33 88.8872C177.349 88.8539 177.353 88.8145 177.342 88.778C177.332 88.7414 177.307 88.7105 177.274 88.6922C177.24 88.6738 177.201 88.6695 177.164 88.6801Z" fill="#263238"/>
<path d="M179.051 96.8034C178.223 96.9275 177.422 97.1923 176.684 97.5864L174.193 98.5829C172.529 99.2324 170.865 99.8908 169.183 100.487C169.095 100.487 169.183 100.647 169.183 100.62C170.901 100.024 172.627 99.4459 174.335 98.8409L176.844 97.9512C177.637 97.7452 178.385 97.3954 179.051 96.9191C179.066 96.9191 179.081 96.913 179.092 96.9021C179.102 96.8913 179.109 96.8766 179.109 96.8612C179.109 96.8459 179.102 96.8312 179.092 96.8203C179.081 96.8095 179.066 96.8034 179.051 96.8034Z" fill="#263238"/>
<path d="M147.501 85.913L155.713 112.81C155.713 112.81 118.344 124.519 112.116 119.999C105.888 115.479 119.1 84.4627 143.123 61.7477C151.558 53.7401 151.682 61.899 148.835 71.1078C145.543 81.7846 142.803 88.6712 142.803 88.6712L147.501 85.913Z" fill="#B12441"/>
<path d="M147.465 85.913C146.575 86.2867 136.281 92.3013 135.569 92.7729C135.198 92.8171 134.835 92.916 134.493 93.0665C134.074 93.1999 133.665 93.3423 133.247 93.4936C132.464 93.7872 131.672 94.0808 130.889 94.3833C129.351 95.0797 127.763 95.6597 126.138 96.1183C126.049 96.1183 126.138 96.2695 126.138 96.2517C127.817 95.892 129.475 95.4375 131.103 94.8904C131.921 94.6324 132.74 94.3566 133.55 94.0719L132.66 94.6324C129.305 96.8568 126.013 99.1701 122.677 101.421C120.782 102.702 118.896 104.001 116.974 105.256C116.961 105.268 116.954 105.283 116.952 105.3C116.95 105.317 116.955 105.334 116.964 105.348C116.974 105.362 116.988 105.372 117.005 105.376C117.021 105.381 117.039 105.379 117.054 105.372C123.78 100.976 146.762 86.9362 147.572 86.1799C147.75 86.0554 147.616 85.824 147.465 85.913Z" fill="#263238"/>
<path d="M150.259 106.911C149.609 105.025 148.986 103.138 148.319 101.261C146.976 97.5152 145.73 93.6893 144.2 90.0147C144.195 90.0011 144.186 89.9893 144.174 89.981C144.162 89.9727 144.147 89.9683 144.133 89.9683C144.118 89.9683 144.104 89.9727 144.092 89.981C144.08 89.9893 144.071 90.0011 144.066 90.0147C144.912 93.9588 146.078 97.8272 147.554 101.581C148.248 103.432 149.04 105.229 149.858 107.035C150.677 108.842 151.451 110.692 152.323 112.481C151.665 110.63 150.908 108.788 150.259 106.911Z" fill="#263238"/>
<path d="M148.159 78.2435C147.554 79.0087 146.833 79.676 146.219 80.45C146.182 80.4876 146.149 80.5294 146.122 80.5746C147.011 78.2346 147.794 75.8768 148.586 73.5101C148.586 73.5101 148.542 73.4567 148.524 73.5101C147.243 76.3928 145.961 79.2845 144.814 82.2295C144.244 83.7065 142.224 88.9737 142.34 89.1694C142.456 89.3652 142.518 89.3296 142.607 89.2228C142.696 89.1161 144.324 85.2101 144.387 84.9343C144.742 84.0446 145.098 83.1548 145.445 82.2651C145.457 82.2338 145.471 82.2039 145.49 82.1761C145.614 82.0071 145.757 81.8469 145.89 81.6779C146.166 81.3309 146.424 80.9661 146.691 80.6102C147.234 79.8895 147.661 79.0798 148.221 78.3591C148.319 78.2613 148.212 78.1723 148.159 78.2435Z" fill="#263238"/>
<path d="M155.873 112.881C155.845 112.738 155.803 112.598 155.748 112.463C155.695 112.303 155.642 112.142 155.579 111.982C155.521 111.828 155.47 111.67 155.428 111.511L155.321 111.013C155.316 110.999 155.307 110.987 155.295 110.979C155.283 110.971 155.269 110.966 155.255 110.966C155.24 110.966 155.226 110.971 155.214 110.979C155.202 110.987 155.193 110.999 155.188 111.013L155.321 111.493C155.362 111.657 155.389 111.823 155.401 111.991C155.401 112.151 155.401 112.312 155.464 112.472L155.508 112.703C155.505 112.774 155.505 112.845 155.508 112.917C153.729 113.299 152.003 113.869 150.259 114.331L144.796 115.764C141.112 116.653 137.438 117.641 133.736 118.522C131.868 118.967 130.008 119.412 128.122 119.812C128.122 119.865 128.122 119.919 128.122 119.972C131.681 119.278 135.16 118.673 138.657 117.872C142.358 116.983 146.041 116.093 149.68 114.999C151.745 114.385 153.898 113.851 155.909 113.032C155.918 113.021 155.925 113.007 155.928 112.992C155.932 112.978 155.932 112.962 155.928 112.948C155.925 112.933 155.918 112.92 155.908 112.908C155.899 112.896 155.887 112.887 155.873 112.881Z" fill="#263238"/>
<path d="M56.5784 299.174H47.5564L49.8609 106.706L50.0477 90.6731H54.0782L54.2651 106.706L56.5784 299.174Z" fill="#B12441"/>
<path d="M54.2651 106.706H49.8609L50.0477 90.6731H54.0782L54.2651 106.706Z" fill="#263238"/>
<path d="M29.5749 32.3153L33.116 95.1307L37.2533 95.7891L41.0258 96.3852V28.5606L33.0181 31.1853L29.5749 32.3153Z" fill="#B12441"/>
<path d="M33.4808 39.6467C33.4808 39.6467 18.1951 39.7979 18.5065 40.661C18.8179 41.524 24.9749 43.2323 25.5266 43.6238C26.0782 44.0153 31.9238 55.1904 33.4808 55.1904C35.0378 55.1904 33.4808 39.6467 33.4808 39.6467Z" fill="#B12441"/>
<path d="M34.6108 57.4414C34.6108 57.4414 19.3162 57.5927 19.6276 58.4468C19.939 59.301 26.1049 61.0271 26.6565 61.4186C27.2082 61.81 33.0448 72.9851 34.6108 72.9851C36.1767 72.9851 34.6108 57.4414 34.6108 57.4414Z" fill="#B12441"/>
<path d="M35.7318 75.2362C35.7318 75.2362 20.4462 75.3963 20.7576 76.2505C21.069 77.1046 27.2348 78.8307 27.7776 79.2222C28.3203 79.6137 34.1748 90.7888 35.7318 90.7888C37.2889 90.7888 35.7318 75.2362 35.7318 75.2362Z" fill="#B12441"/>
<path d="M33.0181 31.1853L37.2533 95.7891L41.0258 96.3852V28.5606L33.0181 31.1853Z" fill="#263238"/>
<path d="M74.5511 32.3153L71.0099 95.1307L66.8726 95.7891L63.1002 96.3852V28.5606L71.1078 31.1853L74.5511 32.3153Z" fill="#B12441"/>
<path d="M70.6451 39.6467C70.6451 39.6467 85.9308 39.7979 85.6194 40.661C85.308 41.524 79.151 43.2323 78.5994 43.6238C78.0477 44.0153 72.2022 55.1904 70.6451 55.1904C69.0881 55.1904 70.6451 39.6467 70.6451 39.6467Z" fill="#B12441"/>
<path d="M69.5152 57.4414C69.5152 57.4414 84.8097 57.5927 84.4983 58.4468C84.1869 59.301 78.021 61.0271 77.4694 61.4186C76.9178 61.81 71.0811 72.9851 69.5152 72.9851C67.9492 72.9851 69.5152 57.4414 69.5152 57.4414Z" fill="#B12441"/>
<path d="M68.3941 75.2362C68.3941 75.2362 83.6798 75.3963 83.3684 76.2505C83.057 77.1046 76.8911 78.8307 76.3483 79.2222C75.8056 79.6137 69.9511 90.7888 68.3941 90.7888C66.8371 90.7888 68.3941 75.2362 68.3941 75.2362Z" fill="#B12441"/>
<path d="M71.1078 31.1853L66.8726 95.7891L63.1002 96.3852V28.5606L71.1078 31.1853Z" fill="#263238"/>
<path d="M66.4189 23.4535L65.1732 97.9156H38.9616L37.7071 23.4535H66.4189Z" fill="#B12441"/>
<path d="M61.4008 36.6661C61.4008 38.5138 60.8529 40.32 59.8263 41.8563C58.7998 43.3927 57.3407 44.5901 55.6336 45.2972C53.9266 46.0043 52.0482 46.1893 50.2359 45.8288C48.4237 45.4683 46.7591 44.5786 45.4526 43.272C44.146 41.9655 43.2563 40.3009 42.8958 38.4886C42.5353 36.6764 42.7203 34.798 43.4274 33.0909C44.1345 31.3839 45.3319 29.9248 46.8683 28.8983C48.4046 27.8717 50.2108 27.3238 52.0585 27.3238C54.5362 27.3238 56.9125 28.3081 58.6645 30.0601C60.4165 31.8121 61.4008 34.1883 61.4008 36.6661Z" fill="#F5F5F5"/>
<path d="M61.4008 83.8043C61.4008 85.6521 60.8529 87.4583 59.8263 88.9946C58.7998 90.5309 57.3407 91.7283 55.6336 92.4354C53.9266 93.1425 52.0482 93.3275 50.2359 92.9671C48.4237 92.6066 46.7591 91.7168 45.4526 90.4103C44.146 89.1038 43.2563 87.4391 42.8958 85.6269C42.5353 83.8147 42.7203 81.9363 43.4274 80.2292C44.1345 78.5221 45.3319 77.0631 46.8683 76.0365C48.4046 75.01 50.2108 74.4621 52.0585 74.4621C54.5362 74.4621 56.9125 75.4464 58.6645 77.1984C60.4165 78.9504 61.4008 81.3266 61.4008 83.8043Z" fill="white"/>
<path d="M61.4008 60.4754C61.4008 62.3232 60.8529 64.1294 59.8263 65.6657C58.7998 67.202 57.3407 68.3994 55.6336 69.1065C53.9266 69.8136 52.0482 69.9986 50.2359 69.6382C48.4237 69.2777 46.7591 68.3879 45.4526 67.0814C44.146 65.7749 43.2563 64.1102 42.8958 62.298C42.5353 60.4858 42.7203 58.6074 43.4274 56.9003C44.1345 55.1932 45.3319 53.7342 46.8683 52.7076C48.4046 51.6811 50.2108 51.1332 52.0585 51.1332C54.5362 51.1332 56.9125 52.1175 58.6645 53.8695C60.4165 55.6215 61.4008 57.9977 61.4008 60.4754Z" fill="white"/>
<path d="M59.2921 331.863H44.8339L46.0706 294.031L46.4532 282.287H57.3703L57.824 294.031L59.2921 331.863Z" fill="#B12441"/>
<path d="M57.824 294.031H46.0706L46.4532 282.287H57.3702L57.824 294.031Z" fill="#455A64"/>
</svg>
